# WaveFront *.obj file (generated by CINEMA 4D)

mtllib box-base.mtl

v -315.57369995117188 -147.98136901855469 96.66251373291016
v -315.57369995117188 -2.27866172790527 96.66251373291016
v 332.05929565429688 -147.98136901855469 96.66251373291016
v 332.05929565429688 -2.27866172790527 96.66251373291016
v 332.05929565429688 -147.98136901855469 -108.53748321533203
v 332.05929565429688 -2.27866172790527 -108.53748321533203
v -315.57369995117188 -147.98136901855469 -108.53748321533203
v -315.57369995117188 -2.27866172790527 -108.53748321533203
v -315.57369995117188 -147.98136901855469 103.84980010986328
v -315.57369995117188 -2.27866172790527 103.84980010986328
v 332.05929565429688 -147.98136901855469 103.84980010986328
v 332.05929565429688 -2.27866172790527 103.84980010986328
v 342.12042236328125 -147.98136901855469 96.66251373291016
v 342.12042236328125 -2.27866172790527 96.66251373291016
v 342.12042236328125 -147.98136901855469 -108.53748321533203
v 342.12042236328125 -2.27866172790527 -108.53748321533203
v -321.8525390625 -147.98136901855469 96.66251373291016
v -321.8525390625 -2.27866172790527 96.66251373291016
v -321.8525390625 -147.98136901855469 -108.53748321533203
v -321.8525390625 -2.27866172790527 -108.53748321533203
v 332.05929565429688 -147.98136901855469 -102.67860412597656
v 332.05929565429688 -2.27866172790527 -102.67860412597656
v -315.57369995117188 -147.98136901855469 -102.67860412597656
v -315.57369995117188 -2.27866172790527 -102.67860412597656
v 332.05929565429688 -147.98136901855469 -97.20525360107422
v 332.05929565429688 -2.27866172790527 -97.20525360107422
v -315.57369995117188 -147.98136901855469 -97.20525360107422
v -315.57369995117188 -2.27866172790527 -97.20525360107422
v 332.05929565429688 -147.98136901855469 -108.88094329833984
v 332.05929565429688 -2.27866172790527 -108.88094329833984
v -315.57369995117188 -147.98136901855469 -108.88094329833984
v -315.57369995117188 -2.27866172790527 -108.88094329833984
v 327.88491821289062 -150.95597839355469 -90.10292816162109
v 327.88491821289062 -5.25327205657959 -90.10292816162109
v -319.74807739257812 -150.95597839355469 -90.10292816162109
v -319.74807739257812 -5.25327205657959 -90.10292816162109
v 327.88491821289062 -150.95597839355469 -105.74295043945312
v 327.88491821289062 -5.25327205657959 -105.74295043945312
v -319.74807739257812 -150.95597839355469 -105.74295043945312
v -319.74807739257812 -5.25327205657959 -105.74295043945312
v 331.50827026367188 -148.42770385742188 -105.77424621582031
v 331.50827026367188 -148.372802734375 -110.29315185546875
v -318.2930908203125 -148.42770385742188 -105.77424621582031
v -318.2930908203125 -148.372802734375 -110.29315185546875
v -318.2930908203125 -4.47755241394043 -104.02519989013672
v -318.2930908203125 -4.42264604568481 -108.54410552978516
v 331.50827026367188 -4.47755241394043 -104.02519989013672
v 331.50827026367188 -4.42264604568481 -108.54410552978516
v 331.50827026367188 -148.56864929199219 -94.17405700683594
v -318.2930908203125 -148.56864929199219 -94.17405700683594
v -318.2930908203125 -4.61849927902222 -92.42501068115234
v 331.50827026367188 -4.61849927902222 -92.42501068115234
# 52 vertices

vn 0 0 1
vn 1 0 0
vn -1 0 0
vn 0 -1 0
vn 0 1 0
vn 0 0 0
vn 0 0 -1
vn 0.75309717655182 0 -0.65790927410126
vn -0.58126771450043 0 -0.81371235847473
vn 0 0.98768711090088 0.15644237399101
vn 0.97617089748383 0 0.21700325608253
vn 0 -0.98768711090088 -0.15644237399101
vn -0.97617089748383 0 -0.21700325608253
vn 0 -0.01212524529546 0.99992650747299
vn 0 0.99992650747299 0.01212524529546
vn 0 -0.99992650747299 -0.01212524529546
vn 0 0.01212524529546 -0.99992650747299
# 17 normals

vt 0.00696139317006 0.71604520082474 0
vt 0.00696139317006 0.82524824142456 0
vt 0.49069368839264 0.82524824142456 0
vt 0.49069368839264 0.71604520082474 0
vt 0.50461649894714 0.76063793897629 0
vt 0.50461649894714 0.86984097957611 0
vt 0.65788519382477 0.86984097957611 0
vt 0.65788519382477 0.76063793897629 0
vt 0.50461649894714 0.88381159305573 0
vt 0.50461649894714 0.99301469326019 0
vt 0.65788519382477 0.99301469326019 0
vt 0.65788519382477 0.88381159305573 0
vt 0.00696139317006 0.83921885490417 0
vt 0.00696139317006 0.99301469326019 0
vt 0.49069368839264 0.99301469326019 0
vt 0.49069368839264 0.83921885490417 0
vt 0.50461649894714 0.05660545825958 0
vt 0.50461649894714 0.0619922876358 0
vt 0.98834878206253 0.0619922876358 0
vt 0.98834878206253 0.05660545825958 0
vt 0.77455431222916 0.88381159305573 0
vt 0.76918596029282 0.88381159305573 0
vt 0.76918596029282 0.99301469326019 0
vt 0.77455431222916 0.99301469326019 0
vt 0.98834878206253 0.08134973049164 0
vt 0.98834878206253 0.07596290111542 0
vt 0.50461649894714 0.07596290111542 0
vt 0.50461649894714 0.08134973049164 0
vt 0.80765235424042 0.79242670536041 0
vt 0.81302070617676 0.79242670536041 0
vt 0.81302070617676 0.68322372436523 0
vt 0.80765235424042 0.68322372436523 0
vt 0.50461649894714 0.01469349861145 0
vt 0.98834878206253 0.01469349861145 0
vt 0.49069368839264 0.00698530673981 0
vt 0.00696139317006 0.00698530673981 0
vt 0.00696139317006 0.70207452774048 0
vt 0.49069368839264 0.70207452774048 0
vt 0.49069368839264 0.59287148714066 0
vt 0.00696139317006 0.59287148714066 0
vt 0.98834878206253 0.02866411209106 0
vt 0.50461649894714 0.02866411209106 0
vt 0.98834878206253 0.04263484477997 0
vt 0.50461649894714 0.04263484477997 0
vt 0.50623607635498 0.36719512939453 0
vt 0.55551934242249 0.34783756732941 0
vt 0.55551934242249 0.45704066753387 0
vt 0.51375097036362 0.45704066753387 0
vt 0.54159653186798 0.45704066753387 0
vt 0.54159653186798 0.34783756732941 0
vt 0.72536116838455 0.82524824142456 0
vt 0.73287606239319 0.82524824142456 0
vt 0.73287606239319 0.67145240306854 0
vt 0.72536116838455 0.67145240306854 0
vt 0.75650435686111 0.5154572725296 0
vt 0.74898946285248 0.5154572725296 0
vt 0.74898946285248 0.62466031312943 0
vt 0.75650435686111 0.62466031312943 0
vt 0.72536116838455 0.99301469326019 0
vt 0.73287606239319 0.99301469326019 0
vt 0.73287606239319 0.83921885490417 0
vt 0.72536116838455 0.83921885490417 0
vt 0.74679887294769 0.86984097957611 0
vt 0.75431376695633 0.86984097957611 0
vt 0.75431376695633 0.76063793897629 0
vt 0.74679887294769 0.76063793897629 0
vt 0.51375097036362 0.44306993484497 0
vt 0.50623607635498 0.38116574287415 0
vt 0.50461649894714 0.74666726589203 0
vt 0.65788519382477 0.74666726589203 0
vt 0.65788519382477 0.63746422529221 0
vt 0.50461649894714 0.63746422529221 0
vt 0.50623607635498 0.39513635635376 0
vt 0.77511692047119 0.5154572725296 0
vt 0.77042710781097 0.5154572725296 0
vt 0.77042710781097 0.66925305128098 0
vt 0.77511692047119 0.66925305128098 0
vt 0.81245803833008 0.88381159305573 0
vt 0.80776822566986 0.88381159305573 0
vt 0.80776822566986 0.99301469326019 0
vt 0.81245803833008 0.99301469326019 0
vt 0.79372954368591 0.5154572725296 0
vt 0.7890397310257 0.5154572725296 0
vt 0.7890397310257 0.66925305128098 0
vt 0.79372954368591 0.66925305128098 0
vt 0.80765235424042 0.66925305128098 0
vt 0.81234216690063 0.66925305128098 0
vt 0.81234216690063 0.56005001068115 0
vt 0.80765235424042 0.56005001068115 0
vt 0.50623607635498 0.40910708904266 0
vt 0.50461649894714 0.62349355220795 0
vt 0.65788519382477 0.62349355220795 0
vt 0.65788519382477 0.51429051160812 0
vt 0.50461649894714 0.51429051160812 0
vt 0.52767378091812 0.45704066753387 0
vt 0.52767378091812 0.34783756732941 0
vt 0.79384547472 0.99301469326019 0
vt 0.79384547472 0.88381159305573 0
vt 0.78847712278366 0.88381159305573 0
vt 0.78847712278366 0.99301469326019 0
vt 0.50930631160736 0.47785580158234 0
vt 0.99303859472275 0.47246897220612 0
vt 0.50930631160736 0.47246897220612 0
vt 0.50461649894714 0.47246897220612 0
vt 0.76823651790619 0.76063793897629 0
vt 0.76823651790619 0.86984097957611 0
vt 0.77575141191483 0.86984097957611 0
vt 0.77575141191483 0.76063793897629 0
vt 0.50623607635498 0.35322439670563 0
vt 0.51375097036362 0.34783756732941 0
vt 0.50623607635498 0.34783756732941 0
vt 0.50948798656464 0.3488837480545 0
vt 0.50623607635498 0.33386695384979 0
vt 0.98996841907501 0.33386695384979 0
vt 0.98834878206253 0.50031983852386 0
vt 0.98834878206253 0.49592864513397 0
vt 0.50461649894714 0.49592864513397 0
vt 0.50461649894714 0.50031983852386 0
vt 0.65350908041 0.51429051160812 0
vt 0.65350908041 0.62349355220795 0
vt 0.50461649894714 0.09532046318054 0
vt 0.50461649894714 0.09971165657043 0
vt 0.98834878206253 0.09971165657043 0
vt 0.98834878206253 0.09532046318054 0
vt 0.74679887294769 0.99301469326019 0
vt 0.75117498636246 0.99301469326019 0
vt 0.75117498636246 0.88381159305573 0
vt 0.74679887294769 0.88381159305573 0
vt 0.98834878206253 0.49182641506195 0
vt 0.50461649894714 0.49182641506195 0
vt 0.6494208574295 0.51429051160812 0
vt 0.6494208574295 0.62349355220795 0
vt 0.50461649894714 0.10381388664246 0
vt 0.98834878206253 0.10381388664246 0
vt 0.75526314973831 0.99301469326019 0
vt 0.75526314973831 0.88381159305573 0
vt 0.49069368839264 0.05242836475372 0
vt 0.49069368839264 0.04367756843567 0
vt 0.00696139317006 0.04367756843567 0
vt 0.00696139317006 0.05242836475372 0
vt 0.70847737789154 0.63746422529221 0
vt 0.69975650310516 0.63746422529221 0
vt 0.69975650310516 0.74666726589203 0
vt 0.70847737789154 0.74666726589203 0
vt 0.00696139317006 0.02095603942871 0
vt 0.00696139317006 0.02970683574677 0
vt 0.49069368839264 0.02970683574677 0
vt 0.49069368839264 0.02095603942871 0
vt 0.72634583711624 0.62466031312943 0
vt 0.73506665229797 0.62466031312943 0
vt 0.73506665229797 0.5154572725296 0
vt 0.72634583711624 0.5154572725296 0
vt 0.49381163716316 0.21200668811798 0
vt 0.49069368839264 0.19793272018433 0
vt 0.00696139317006 0.19793272018433 0
vt 0.01007933355868 0.21200668811798 0
vt 0.68583369255066 0.88381159305573 0
vt 0.67180794477463 0.88158220052719 0
vt 0.67180794477463 0.99078524112701 0
vt 0.68583369255066 0.99301469326019 0
vt 0.01007933355868 0.16988813877106 0
vt 0.00696139317006 0.18396210670471 0
vt 0.49069368839264 0.18396210670471 0
vt 0.49381163716316 0.16988813877106 0
vt 0.67180794477463 0.86761152744293 0
vt 0.68583369255066 0.86538207530975 0
vt 0.68583369255066 0.75617903470993 0
vt 0.67180794477463 0.75840848684311 0
vt 0.49069368839264 0.07812106609344 0
vt 0.49069368839264 0.06639909744263 0
vt 0.00696139317006 0.06639909744263 0
vt 0.00696139317006 0.07812106609344 0
vt 0.71143841743469 0.88381159305573 0
vt 0.69975650310516 0.88381159305573 0
vt 0.69975650310516 0.99301469326019 0
vt 0.71143841743469 0.99301469326019 0
vt 0.00696139317006 0.09209179878235 0
vt 0.00696139317006 0.10381388664246 0
vt 0.49069368839264 0.10381388664246 0
vt 0.49069368839264 0.09209179878235 0
vt 0.69975650310516 0.86984097957611 0
vt 0.71143841743469 0.86984097957611 0
vt 0.71143841743469 0.76063793897629 0
vt 0.69975650310516 0.76063793897629 0
vt 0.4923132956028 0.33386695384979 0
vt 0.4923132956028 0.22597742080688 0
vt 0.00696139317006 0.22597742080688 0
vt 0.00696139317006 0.33386695384979 0
vt 0.00696139317006 0.46969783306122 0
vt 0.00696139317006 0.5789008140564 0
vt 0.49069368839264 0.5789008140564 0
vt 0.49069368839264 0.46969783306122 0
vt 0.4923132956028 0.12647879123688 0
vt 0.4923132956028 0.11778450012207 0
vt 0.00696139317006 0.11778450012207 0
vt 0.00696139317006 0.12647879123688 0
vt 0.67648965120316 0.62345242500305 0
vt 0.68515408039093 0.62334674596786 0
vt 0.68384772539139 0.5154572725296 0
vt 0.67518323659897 0.51556289196014 0
vt 0.00696139317006 0.14722323417664 0
vt 0.00696139317006 0.15591740608215 0
vt 0.4923132956028 0.15591740608215 0
vt 0.4923132956028 0.14722323417664 0
vt 0.7090477347374 0.51556289196014 0
vt 0.70038330554962 0.5154572725296 0
vt 0.69907689094543 0.62334674596786 0
vt 0.70774132013321 0.62345242500305 0
vt 0.4923132956028 0.14383637905121 0
vt 0.00696139317006 0.14383637905121 0
vt 0.67180794477463 0.51560401916504 0
vt 0.67311435937881 0.62349355220795 0
vt 0.00696139317006 0.1298656463623 0
vt 0.4923132956028 0.1298656463623 0
vt 0.71111661195755 0.62349355220795 0
vt 0.71242302656174 0.51560401916504 0
vt 0.00696139317006 0.34783756732941 0
vt 0.00696139317006 0.45572710037231 0
vt 0.4923132956028 0.45572710037231 0
vt 0.4923132956028 0.34783756732941 0
# 220 texture coordinates

o Cube.1
usemtl Cube
f 11/4/1 12/3/1 10/2/1 9/1/1
f 15/8/2 16/7/2 14/6/2 13/5/2
f 17/12/3 18/11/3 20/10/3 19/9/3
f 5/16/4 3/15/4 1/14/4 7/13/4
f 3/20/4 11/19/4 9/18/4 1/17/4
f 4/24/2 12/23/2 11/22/2 3/21/2
f 2/28/5 10/27/5 12/26/5 4/25/5
f 1/32/3 9/31/3 10/30/3 2/29/3
f 4/34/6 2/33/6 4/34/6 2/33/6
f 1/36/6 3/35/6 1/36/6 3/35/6
f 3/40/7 1/39/7 2/38/7 4/37/7
f 10/42/6 12/41/6 10/42/6 12/41/6
f 10/44/6 12/43/6 10/44/6 12/43/6
f 5/45/6 3/45/6 3/45/6
f 6/47/6 5/46/6 5/46/6
f 4/48/6 6/48/6 6/48/6
f 3/50/6 4/49/6 4/49/6
f 5/54/4 15/53/4 13/52/4 3/51/4
f 6/58/7 16/57/7 15/56/7 5/55/7
f 4/62/5 14/61/5 16/60/5 6/59/5
f 3/66/1 13/65/1 14/64/1 4/63/1
f 3/67/6 5/67/6 3/67/6 5/67/6
f 3/68/6 5/68/6 3/68/6 5/68/6
f 5/72/3 3/71/3 4/70/3 6/69/3
f 14/73/6 16/73/6 14/73/6 16/73/6
f 1/77/4 17/76/4 19/75/4 7/74/4
f 2/81/1 18/80/1 17/79/1 1/78/1
f 8/85/5 20/84/5 18/83/5 2/82/5
f 7/89/7 19/88/7 20/87/7 8/86/7
f 7/90/6 1/90/6 7/90/6 1/90/6
f 1/94/2 7/93/2 8/92/2 2/91/2
f 9/96/6 10/95/6 9/96/6 10/95/6
f 10/100/8 9/99/8 17/98/8 18/97/8
f 18/104/4 2/103/4 4/102/4 10/101/4
f 11/108/9 12/107/9 14/106/9 13/105/9
f 4/111/4 14/110/4 12/109/4
f 11/114/6 9/113/6 11/114/6 9/113/6
f 7/118/5 23/117/5 21/116/5 5/115/5
f 8/92/2 24/120/2 23/119/2 7/93/2
f 6/124/4 22/123/4 24/122/4 8/121/4
f 5/128/3 21/127/3 22/126/3 6/125/3
f 23/117/5 27/130/5 25/129/5 21/116/5
f 24/120/2 28/132/2 27/131/2 23/119/2
f 22/123/4 26/134/4 28/133/4 24/122/4
f 21/127/3 25/136/3 26/135/3 22/126/3
f 27/140/4 31/139/4 29/138/4 25/137/4
f 28/144/3 32/143/3 31/142/3 27/141/3
f 26/148/5 30/147/5 32/146/5 28/145/5
f 25/152/2 29/151/2 30/150/2 26/149/2
f 31/156/10 35/155/10 33/154/10 29/153/10
f 32/160/11 36/159/11 35/158/11 31/157/11
f 30/164/12 34/163/12 36/162/12 32/161/12
f 29/168/13 33/167/13 34/166/13 30/165/13
f 35/172/4 39/171/4 37/170/4 33/169/4
f 36/176/3 40/175/3 39/174/3 35/173/3
f 34/180/5 38/179/5 40/178/5 36/177/5
f 33/184/2 37/183/2 38/182/2 34/181/2
f 51/188/14 50/187/14 49/186/14 52/185/14
f 39/192/7 40/191/7 38/190/7 37/189/7
f 45/196/15 51/195/15 52/194/15 47/193/15
f 43/200/3 50/199/3 51/198/3 45/197/3
f 41/204/16 49/203/16 50/202/16 43/201/16
f 47/208/2 52/207/2 49/206/2 41/205/2
f 43/201/16 44/210/16 42/209/16 41/204/16
f 45/197/3 46/212/3 44/211/3 43/200/3
f 47/193/15 48/214/15 46/213/15 45/196/15
f 41/205/2 42/216/2 48/215/2 47/208/2
f 44/220/17 46/219/17 48/218/17 42/217/17

