# WaveFront *.obj file (generated by CINEMA 4D)

mtllib ./box-top.mtl

v -318.22006225585938 -2.26992297172546 -97.25384521484375
v -318.22006225585938 2.26992297172546 -97.25384521484375
v 341.00796508789062 -2.26992297172546 -97.25384521484375
v 341.00796508789062 2.26992297172546 -97.25384521484375
v 341.00796508789062 -2.26992297172546 -103.58934020996094
v 341.00796508789062 2.26992297172546 -103.58934020996094
v -318.22006225585938 -2.26992297172546 -103.58934020996094
v -318.22006225585938 2.26992297172546 -103.58934020996094
v -318.22006225585938 -2.26992297172546 100
v -318.22006225585938 2.26992297172546 100
v 341.00796508789062 -2.26992297172546 100
v 341.00796508789062 2.26992297172546 100
v 341.00796508789062 -2.26992297172546 -100
v 341.00796508789062 2.26992297172546 -100
v -318.22006225585938 -2.26992297172546 -100
v -318.22006225585938 2.26992297172546 -100
# 16 vertices

vn 0 0 1
vn 1 0 0
vn 0 0 -1
vn -1 0 0
vn 0 1 0
vn 0 -1 0
# 6 normals

vt 0 0 0
vt 0 1 0
vt 1 1 0
vt 1 0 0
vt 0.00798131711781 0.12467908859253 0
vt 0.00798131711781 0.13321888446808 0
vt 0.992018699646 0.13321888446808 0
vt 0.992018699646 0.12467908859253 0
vt 0.63699126243591 0.01005780696869 0
vt 0.63699126243591 0.01859760284424 0
vt 0.64644831418991 0.01859760284424 0
vt 0.64644831418991 0.01005780696869 0
vt 0.00798131711781 0.09602379798889 0
vt 0.00798131711781 0.10456359386444 0
vt 0.992018699646 0.10456359386444 0
vt 0.992018699646 0.09602379798889 0
vt 0.66241097450256 0.01005780696869 0
vt 0.66241097450256 0.01859760284424 0
vt 0.67186802625656 0.01859760284424 0
vt 0.67186802625656 0.01005780696869 0
vt 0.00798131711781 0.18536746501923 0
vt 0.00798131711781 0.19728493690491 0
vt 0.992018699646 0.19728493690491 0
vt 0.992018699646 0.18536746501923 0
vt 0.00798131711781 0.15333449840546 0
vt 0.00798131711781 0.16525197029114 0
vt 0.992018699646 0.16525197029114 0
vt 0.992018699646 0.15333449840546 0
vt 0.00798131711781 0.06736850738525 0
vt 0.00798131711781 0.07590818405151 0
vt 0.992018699646 0.07590818405151 0
vt 0.992018699646 0.06736850738525 0
vt 0.00798131711781 0.01005780696869 0
vt 0.00798131711781 0.01859760284424 0
vt 0.30652365088463 0.01859760284424 0
vt 0.30652365088463 0.01005780696869 0
vt 0.00798131711781 0.03871309757233 0
vt 0.00798131711781 0.04725289344788 0
vt 0.992018699646 0.04725289344788 0
vt 0.992018699646 0.03871309757233 0
vt 0.32248628139496 0.01005780696869 0
vt 0.32248628139496 0.01859760284424 0
vt 0.62102860212326 0.01859760284424 0
vt 0.62102860212326 0.01005780696869 0
vt 0.00798131711781 0.61372917890549 0
vt 0.00798131711781 0.98994219303131 0
vt 0.992018699646 0.98994219303131 0
vt 0.992018699646 0.61372917890549 0
vt 0.00798131711781 0.21740055084229 0
vt 0.00798131711781 0.59361356496811 0
vt 0.992018699646 0.59361356496811 0
vt 0.992018699646 0.21740055084229 0
# 52 texture coordinates

o box-top.obj.1
usemtl Mat
f 3/4/1 4/3/1 2/2/1 1/1/1
f 5/4/2 6/3/2 4/2/2 3/1/2
f 7/4/3 8/3/3 6/2/3 5/1/3
f 1/4/4 2/3/4 8/2/4 7/1/4
f 4/4/5 6/3/5 8/2/5 2/1/5
f 5/4/6 3/3/6 1/2/6 7/1/6
f 11/4/1 12/3/1 10/2/1 9/1/1
f 13/4/2 14/3/2 12/2/2 11/1/2
f 9/4/4 10/3/4 16/2/4 15/1/4
f 13/4/6 11/3/6 9/2/6 15/1/6
f 15/4/3 16/3/3 14/2/3 13/1/3
f 12/4/5 14/3/5 16/2/5 10/1/5
f 3/8/1 4/7/1 2/6/1 1/5/1
f 5/12/2 6/11/2 4/10/2 3/9/2
f 7/16/3 8/15/3 6/14/3 5/13/3
f 1/20/4 2/19/4 8/18/4 7/17/4
f 4/24/5 6/23/5 8/22/5 2/21/5
f 5/28/6 3/27/6 1/26/6 7/25/6
f 11/32/1 12/31/1 10/30/1 9/29/1
f 13/36/2 14/35/2 12/34/2 11/33/2
f 15/40/3 16/39/3 14/38/3 13/37/3
f 9/44/4 10/43/4 16/42/4 15/41/4
f 12/48/5 14/47/5 16/46/5 10/45/5
f 13/52/6 11/51/6 9/50/6 15/49/6

